<svg height="300" width="300" xmlns="http://www.w3.org/2000/svg" viewBox="8.15 0.01 86.17 100"><path fill="none" d="M36.23 33.84L24.8 22.66l-3.56-3.43a1.55 1.55 0 00-2.14 0c-.58.58-.61 1.51-.04 2.09l2.2 2.2 12.38 12.4c.3.29 1.17.43 1.55.43.38 0 .37-.14 1.55-.43 0-.58.07-1.5-.5-2.08zM15.9 14.02a1.73 1.73 0 00-2.43 2.44c.45.45 1.1.57 1.67.41l1.18-1.18a1.7 1.7 0 00-.42-1.67zM48.23 31.75l-8.34 8.34 24.77 24.77c1.73.58 8.87 3.3 17.8 11.92l2.45-2.45c-8.6-8.94-11.33-16.07-11.9-17.8L48.22 31.74zm22.95 27.12a1.47 1.47 0 01-2.09 0l-14.6-14.6a1.48 1.48 0 012.09-2.09l14.6 14.6c.57.57.57 1.5 0 2.09z"/><path d="M31.55 40.1l4.17-4.18a1.48 1.48 0 01-2.09 0l-12.4-12.4-2.2-2.2a1.48 1.48 0 012.09-2.09l3.43 3.43 11.17 11.18c.58.57.58 1.5 0 2.08l12.52-12.51L28.42 3.59l-.13-.13A11.8 11.8 0 1011.6 20.15l.14.12v.01l19.8 19.81zM13.47 16.45a1.72 1.72 0 012.44-2.44c.45.46.57 1.1.41 1.67-.08.28-.2.55-.42.76-.21.22-.48.34-.76.42-.57.16-1.21.04-1.67-.41z"/><path d="M88.03 73.29c-9.97-9.97-12.28-17.87-12.3-17.95-.07-.24-.2-.47-.38-.65L50.32 29.66l4.17-4.17a2.95 2.95 0 10-4.17-4.17L29.46 42.18a2.95 2.95 0 104.17 4.17l4.17-4.17L62.83 67.2c.18.17.4.3.65.37.08.03 7.98 2.34 17.95 12.32a1.47 1.47 0 002.09 0l4.51-4.52c.58-.58.58-1.51 0-2.09zm-5.56 3.49c-8.94-8.61-16.07-11.34-17.8-11.92L39.88 40.1l8.35-8.34L73 56.52c.57 1.74 3.3 8.87 11.9 17.8l-2.44 2.46zM35.72 35.92zM16.32 15.7l-1.18 1.17c.28-.08.55-.2.76-.42.22-.21.34-.48.42-.76z"/><path d="M56.58 42.18a1.47 1.47 0 10-2.09 2.09l14.6 14.6a1.47 1.47 0 002.08 0c.58-.58.58-1.51 0-2.1l-14.6-14.59z"/><g><path d="M88.31 87.93s3.64 3.64 3.64 6.07c0 2.42-1.65 3.64-3.68 3.64-2.03 0-3.6-1.22-3.6-3.64 0-2.43 3.64-6.07 3.64-6.07m0-3.35l-1.67 1.67c-1.02 1.02-4.34 4.58-4.34 7.75 0 3.53 2.46 6 5.97 6 3.57 0 6.05-2.47 6.05-6 0-3.16-3.32-6.73-4.33-7.75l-1.68-1.67z"/></g><path d="M42.64 44.93a1.47 1.47 0 102.09 2.09l2.75-2.75a1.48 1.48 0 10-2.08-2.09l-2.76 2.75zM47.38 49.67a1.47 1.47 0 102.09 2.09L52.22 49a1.48 1.48 0 10-2.09-2.09l-2.75 2.75zM52.12 54.41a1.47 1.47 0 102.09 2.09l2.75-2.75a1.48 1.48 0 00-2.09-2.1l-2.75 2.76z"/></svg>